<?xml version="1.0" encoding="utf-8"?>
<!-- Generator: Adobe Illustrator 27.7.0, SVG Export Plug-In . SVG Version: 6.00 Build 0)  -->
<svg version="1.1" xmlns="http://www.w3.org/2000/svg" xmlns:xlink="http://www.w3.org/1999/xlink" x="0px" y="0px"
	 viewBox="0 0 375 232" style="enable-background:new 0 0 375 232;" xml:space="preserve">
<g id="S">
	<g>
		<path d="M163.52,14.83h38.4c4.69,0,9.12,1.65,13.31,4.94c4.19,3.3,6.28,7.29,6.28,11.98c0,1.76-0.75,3.25-2.24,4.47
			c-1.49,1.22-3.15,1.83-4.96,1.83c-2.52,0-4.24-0.48-5.18-1.43c-0.94-0.95-1.83-2.72-2.68-5.31c-0.85-2.59-2.74-3.88-5.67-3.88
			h-36.49c-1.76,0-2.64,0.47-2.64,1.42c-0.05,0.6,0.31,1.29,1.07,2.07l54.83,58.33c2.64,2.83,3.96,5.86,3.96,9.08
			c0,3.66-1.59,6.88-4.78,9.67s-6.74,4.17-10.66,4.17h-39.76c-5.27,0-9.85-1.67-13.74-5.02c-3.89-3.34-5.84-7.02-5.84-11.02
			c0-4.59,2.57-6.88,7.72-6.88c1.99,0,3.69,0.6,5.09,1.79c1.4,1.2,2.11,2.6,2.11,4.21c0,1.32,0.54,2.42,1.62,3.3
			s2.44,1.32,4.08,1.32h36.69c1.58,0,2.37-0.52,2.37-1.57c0.04-0.5-0.31-1.14-1.08-1.92L150.6,38.05c-2.58-2.78-3.87-5.81-3.87-9.08
			c0-3.81,1.64-7.12,4.92-9.92C154.94,16.24,158.89,14.83,163.52,14.83z"/>
	</g>
</g>
<g id="SAFWAN">
	<g>
		<path d="M24.25,152.11h21.36c2.61,0,5.08,1.1,7.41,3.3s3.5,4.86,3.5,7.98c0,1.17-0.42,2.17-1.25,2.98
			c-0.83,0.81-1.75,1.22-2.76,1.22c-1.4,0-2.36-0.32-2.88-0.95c-0.52-0.63-1.02-1.81-1.49-3.54c-0.47-1.73-1.52-2.59-3.16-2.59
			h-20.3c-0.98,0-1.47,0.32-1.47,0.95c-0.03,0.4,0.17,0.86,0.6,1.38l30.5,38.89c1.47,1.89,2.2,3.9,2.2,6.05
			c0,2.44-0.89,4.59-2.66,6.45c-1.77,1.86-3.75,2.78-5.93,2.78H25.8c-2.93,0-5.48-1.11-7.64-3.34c-2.17-2.23-3.25-4.68-3.25-7.35
			c0-3.06,1.43-4.59,4.3-4.59c1.11,0,2.05,0.4,2.83,1.2c0.78,0.8,1.17,1.73,1.17,2.81c0,0.88,0.3,1.61,0.9,2.2
			c0.6,0.59,1.36,0.88,2.27,0.88h20.41c0.88,0,1.32-0.35,1.32-1.04c0.02-0.33-0.18-0.76-0.6-1.28l-30.45-38.89
			c-1.44-1.85-2.15-3.87-2.15-6.05c0-2.54,0.91-4.74,2.74-6.62C19.47,153.04,21.67,152.11,24.25,152.11z"/>
		<path d="M75.65,211.29l16.52-56.13c0.66-2.03,2.04-3.05,4.15-3.05c2.04,0,3.32,0.86,3.85,2.59l16.36,56.98
			c0.13,0.42,0.2,0.83,0.2,1.22c0,1.14-0.39,2.11-1.17,2.91c-0.78,0.8-1.68,1.2-2.68,1.2c-2.15,0-3.51-0.99-4.1-2.98l-3.24-11.13
			H86.73l-3.57,11.93c-0.1,0.52-0.51,1.01-1.23,1.48s-1.5,0.7-2.36,0.7c-1.21,0-2.21-0.41-2.99-1.22c-0.79-0.81-1.18-1.81-1.18-2.98
			C75.41,212.31,75.49,211.81,75.65,211.29z M96.26,171.1l-7.04,23.49h13.88L96.26,171.1z"/>
		<path d="M135.81,212.9v-60.79h37.21c1.07,0,2.03,0.41,2.86,1.22c0.83,0.81,1.25,1.77,1.25,2.88c0,1.14-0.41,2.12-1.22,2.95
			c-0.81,0.83-1.77,1.25-2.88,1.25h-29v12.89h20.8c1.14,0,2.11,0.4,2.91,1.2c0.8,0.8,1.2,1.77,1.2,2.91c0,1.14-0.4,2.11-1.2,2.91
			c-0.8,0.8-1.77,1.2-2.91,1.2h-20.8v31.4c0,1.14-0.4,2.11-1.2,2.91c-0.8,0.8-1.77,1.2-2.91,1.2c-1.14,0-2.11-0.4-2.91-1.2
			C136.21,215.01,135.81,214.04,135.81,212.9z"/>
		<path d="M221.01,177.5v27.29l2.39,4h3.42l2.49-4.1v-48.39c0-1.14,0.41-2.12,1.24-2.95s1.81-1.25,2.96-1.25
			c1.11,0,2.07,0.41,2.88,1.22c0.81,0.81,1.22,1.77,1.22,2.88v49.8c0,0.62-0.34,1.48-1.03,2.59l-3.81,6.3
			c-0.78,1.4-1.97,2.1-3.56,2.1h-7.71c-2.44,0-4-1.11-4.69-3.32c-0.75,2.21-2.25,3.32-4.49,3.32h-7.23c-2.08,0-3.58-0.76-4.49-2.29
			l-3.52-5.91c-0.65-1.07-0.98-2-0.98-2.78v-49.71c0-1.14,0.41-2.12,1.24-2.95s1.81-1.25,2.96-1.25c1.07,0,2.01,0.42,2.81,1.25
			s1.2,1.81,1.2,2.95v48.58l2.39,3.91h3.52l2.59-4.1v-27.2c0-1.14,0.4-2.11,1.2-2.91s1.77-1.2,2.91-1.2c1.14,0,2.11,0.4,2.9,1.2
			S221.01,176.36,221.01,177.5z"/>
		<path d="M256.85,211.29l16.52-56.13c0.66-2.03,2.04-3.05,4.15-3.05c2.04,0,3.32,0.86,3.85,2.59l16.36,56.98
			c0.13,0.42,0.2,0.83,0.2,1.22c0,1.14-0.39,2.11-1.17,2.91c-0.78,0.8-1.68,1.2-2.68,1.2c-2.15,0-3.52-0.99-4.1-2.98l-3.24-11.13
			h-18.79l-3.57,11.93c-0.1,0.52-0.51,1.01-1.23,1.48c-0.72,0.47-1.51,0.7-2.36,0.7c-1.21,0-2.21-0.41-2.99-1.22
			c-0.79-0.81-1.18-1.81-1.18-2.98C256.61,212.31,256.69,211.81,256.85,211.29z M277.46,171.1l-7.04,23.49h13.88L277.46,171.1z"/>
		<path d="M358.32,156.31V217h-11l-22.1-50.39v46.29c0,1.14-0.4,2.11-1.2,2.91c-0.8,0.8-1.77,1.2-2.9,1.2c-1.14,0-2.11-0.4-2.91-1.2
			c-0.8-0.8-1.2-1.77-1.2-2.91v-60.79h10.84l22.17,50.29v-46.09c0-1.14,0.41-2.12,1.24-2.95s1.81-1.25,2.96-1.25
			c1.14,0,2.11,0.41,2.9,1.22C357.92,154.14,358.32,155.13,358.32,156.31z"/>
	</g>
</g>
</svg>
