<?xml version="1.0" standalone="no"?>
<!DOCTYPE svg PUBLIC "-//W3C//DTD SVG 20010904//EN"
 "http://www.w3.org/TR/2001/REC-SVG-20010904/DTD/svg10.dtd">
<svg version="1.0" xmlns="http://www.w3.org/2000/svg"
 width="500.000000pt" height="500.000000pt" viewBox="0 0 500.000000 500.000000"
 preserveAspectRatio="xMidYMid meet">

<g transform="translate(0.000000,500.000000) scale(0.100000,-0.100000)"
fill="#000000" stroke="none">
<path d="M706 2789 c-116 -28 -159 -143 -91 -243 13 -20 83 -106 155 -192 71
-86 128 -160 124 -165 -13 -22 -71 -41 -124 -41 -90 0 -170 51 -170 108 0 31
-10 55 -21 48 -5 -3 -9 -46 -9 -95 0 -68 3 -90 13 -87 6 3 13 16 15 29 l3 25
56 -28 c128 -65 279 -12 312 109 20 72 2 107 -160 298 -82 97 -149 179 -149
181 0 10 70 34 99 34 72 0 144 -51 152 -108 2 -13 9 -23 14 -22 6 0 10 32 10
75 0 42 -4 76 -10 78 -5 1 -11 -10 -13 -24 l-3 -27 -42 24 c-51 28 -108 36
-161 23z m82 -251 c153 -182 172 -217 153 -279 -7 -22 -15 -39 -19 -38 -12 1
-286 337 -299 366 -7 15 -12 40 -13 55 0 33 21 82 31 71 4 -5 70 -83 147 -175z"/>
<path d="M1200 2771 c0 -5 15 -11 34 -13 l34 -3 -96 -297 -96 -297 -30 -3
c-16 -2 -31 -9 -34 -16 -3 -10 15 -12 80 -10 82 3 115 20 51 26 -18 2 -33 6
-33 9 0 4 10 37 22 75 l22 68 137 0 137 0 21 -69 c12 -38 21 -71 21 -74 0 -3
-12 -7 -27 -9 -16 -2 -28 -7 -28 -13 0 -6 51 -11 128 -13 101 -2 128 0 125 10
-3 7 -14 14 -25 16 -17 3 -34 47 -115 310 l-94 307 -117 3 c-71 2 -117 -1
-117 -7z m249 -138 c85 -274 141 -458 141 -465 0 -5 -20 -8 -43 -8 l-44 0 -88
288 c-49 158 -90 293 -93 300 -3 8 9 12 42 12 l45 0 40 -127z m-104 -53 c26
-85 53 -174 60 -197 l13 -43 -124 0 c-88 0 -124 3 -124 12 0 13 122 389 126
385 1 -1 23 -72 49 -157z"/>
<path d="M1740 2770 c0 -5 11 -10 25 -10 l25 0 0 -299 0 -300 -25 -3 c-14 -2
-25 -7 -25 -13 0 -6 54 -11 136 -13 107 -2 135 0 132 10 -3 7 -21 14 -42 16
l-37 3 3 147 3 147 77 3 77 3 3 -27 c2 -15 9 -29 16 -32 9 -3 12 15 12 68 0
53 -3 71 -12 68 -7 -3 -14 -17 -16 -31 -3 -27 -4 -27 -83 -27 l-79 0 0 140 0
140 94 0 95 0 3 -52 c4 -73 22 -66 26 10 l3 62 -206 0 c-130 0 -205 -4 -205
-10z m160 -310 l0 -300 -40 0 -40 0 0 300 0 300 40 0 40 0 0 -300z"/>
<path d="M2170 2771 c0 -5 12 -11 27 -13 25 -3 34 -22 153 -318 70 -173 132
-316 137 -317 6 -2 37 54 69 124 32 70 73 156 89 191 l30 64 74 -184 c40 -101
78 -187 83 -193 14 -15 20 0 104 245 141 411 132 390 165 390 16 0 29 5 29 10
0 6 -33 10 -80 10 -47 0 -80 -4 -80 -10 0 -5 16 -10 36 -10 25 0 35 -4 31 -12
-2 -7 -33 -95 -67 -195 -34 -101 -66 -183 -69 -183 -5 0 -124 282 -157 373 -5
13 -1 17 15 17 12 0 21 5 21 10 0 6 -50 10 -130 10 -74 0 -130 -4 -130 -9 0
-5 12 -11 26 -13 24 -3 32 -15 71 -112 l45 -109 -48 -104 c-26 -57 -50 -100
-54 -96 -7 8 -170 409 -170 418 0 3 9 5 20 5 11 0 20 5 20 10 0 6 -50 10 -130
10 -74 0 -130 -4 -130 -9z m279 -238 c50 -126 91 -234 91 -241 0 -19 -41 -112
-49 -112 -7 0 -216 516 -228 560 -5 18 -1 20 44 20 l50 0 92 -227z m347 4 l91
-222 -21 -62 c-12 -34 -23 -64 -26 -66 -3 -3 -52 110 -109 251 -58 141 -110
272 -118 290 l-13 32 53 0 53 0 90 -223z"/>
<path d="M3330 2770 c0 -5 14 -10 30 -10 17 0 30 -3 31 -7 0 -5 -42 -139 -93
-300 -93 -291 -93 -292 -122 -295 -16 -2 -31 -9 -34 -15 -3 -10 17 -13 78 -13
61 0 81 3 78 13 -3 6 -18 13 -35 15 l-31 3 25 75 25 74 137 0 138 0 16 -57 c9
-32 19 -66 22 -75 5 -13 0 -17 -21 -20 -15 -2 -29 -9 -32 -15 -3 -10 27 -13
128 -13 101 0 131 3 128 13 -3 6 -14 13 -26 15 -23 3 -20 -2 -91 230 -23 72
-59 191 -81 262 l-41 130 -114 0 c-70 0 -115 -4 -115 -10z m210 -13 c0 -3 140
-464 176 -579 5 -15 -1 -18 -40 -18 l-45 0 -40 128 c-85 273 -141 457 -141
464 0 5 20 8 45 8 25 0 45 -2 45 -3z m-54 -220 c31 -103 55 -189 52 -192 -3
-3 -60 -4 -126 -3 l-121 3 59 179 c69 209 69 210 74 205 2 -2 30 -88 62 -192z"/>
<path d="M3840 2770 c0 -5 14 -10 30 -10 l30 0 0 -299 0 -300 -32 -3 c-68 -6
-24 -23 68 -26 75 -2 95 0 92 10 -3 8 -24 14 -51 16 l-47 3 0 270 c0 149 4
268 8 265 5 -3 98 -134 207 -291 109 -157 204 -285 211 -285 12 0 14 57 14
320 l0 320 40 0 c22 0 40 5 40 10 0 6 -37 10 -90 10 -53 0 -90 -4 -90 -10 0
-5 16 -10 35 -10 l35 0 0 -192 0 -192 -110 160 c-61 87 -124 178 -140 202
l-30 42 -110 0 c-67 0 -110 -4 -110 -10z m353 -228 l148 -213 -3 -75 -3 -75
-197 285 c-109 157 -198 288 -198 291 0 3 24 5 52 3 l53 -3 148 -213z"/>
</g>
</svg>
